<?xml version="1.0" encoding="UTF-8" standalone="no"?>
<svg
   xmlns:dc="http://purl.org/dc/elements/1.1/"
   xmlns:cc="http://creativecommons.org/ns#"
   xmlns:rdf="http://www.w3.org/1999/02/22-rdf-syntax-ns#"
   xmlns:svg="http://www.w3.org/2000/svg"
   xmlns="http://www.w3.org/2000/svg"
   xmlns:sodipodi="http://sodipodi.sourceforge.net/DTD/sodipodi-0.dtd"
   xmlns:inkscape="http://www.inkscape.org/namespaces/inkscape"
   version="1.1"
   x="0px"
   y="0px"
   width="100px"
   height="92.316px"
   viewBox="0 0 100 92.316"
   enable-background="new 0 0 100 92.316"
   xml:space="preserve"
   id="svg3382"
   inkscape:version="0.48.4 r9939"
   sodipodi:docname="philosophy.svg"><metadata
     id="metadata3395"><rdf:RDF><cc:Work
         rdf:about=""><dc:format>image/svg+xml</dc:format><dc:type
           rdf:resource="http://purl.org/dc/dcmitype/StillImage" /><dc:title></dc:title></cc:Work></rdf:RDF></metadata><defs
     id="defs3393" /><sodipodi:namedview
     pagecolor="#ffffff"
     bordercolor="#666666"
     borderopacity="1"
     objecttolerance="10"
     gridtolerance="10"
     guidetolerance="10"
     inkscape:pageopacity="0"
     inkscape:pageshadow="2"
     inkscape:window-width="1600"
     inkscape:window-height="876"
     id="namedview3391"
     showgrid="false"
     inkscape:zoom="2.5564365"
     inkscape:cx="50"
     inkscape:cy="46.158001"
     inkscape:window-x="0"
     inkscape:window-y="24"
     inkscape:window-maximized="1"
     inkscape:current-layer="Layer_1" /><g
     id="Layer_1"><g
       id="Layer_1_7_"
       style="fill:#b36ba6;fill-opacity:1;stroke:none"><path
         d="M38.153,39.242c-9.612,0-17.441-7.823-17.441-17.443c0-9.65,7.826-17.47,17.441-17.47c9.663,0,17.47,7.816,17.47,17.47    C55.623,31.42,47.813,39.242,38.153,39.242z"
         id="path3386"
         style="fill:#b36ba6;fill-opacity:1;stroke:none" /></g><path
       d="M73.318,92.316V69.188l9.25,23.128H100c0,0-3.658-22.339-18.479-44.25c-7.517-10.334-21.439-13.053-30.04-7.471   c-1.039,0.261-23.455,17.803-23.455,17.803l4.205-9.328c1.751-3.887,0.021-8.457-3.865-10.207   c-3.884-1.755-8.456-0.022-10.208,3.864L0.828,81.182c-1.464,3.249-0.513,7.08,2.302,9.267c1.394,1.082,3.064,1.623,4.734,1.623   c1.704,0,3.406-0.562,4.812-1.684l20.559-16.397c-3.234,10.171-4.792,18.325-4.792,18.325H73.318z"
       id="path3388"
       style="fill:#b36ba6;fill-opacity:1;stroke:none" /></g><g
     id="Layer_2_1_" /></svg>