<svg xmlns="http://www.w3.org/2000/svg" xmlns:xlink="http://www.w3.org/1999/xlink" version="1.1" x="0px" y="0px" width="100px" height="92.316px" viewBox="0 0 100 92.316" enable-background="new 0 0 100 92.316" xml:space="preserve">
<g id="Layer_1">
	<g id="Layer_1_7_">
		<path d="M38.153,39.242c-9.612,0-17.441-7.823-17.441-17.443c0-9.65,7.826-17.47,17.441-17.47c9.663,0,17.47,7.816,17.47,17.47    C55.623,31.42,47.813,39.242,38.153,39.242z"/>
	</g>
	<path d="M73.318,92.316V69.188l9.25,23.128H100c0,0-3.658-22.339-18.479-44.25c-7.517-10.334-21.439-13.053-30.04-7.471   c-1.039,0.261-23.455,17.803-23.455,17.803l4.205-9.328c1.751-3.887,0.021-8.457-3.865-10.207   c-3.884-1.755-8.456-0.022-10.208,3.864L0.828,81.182c-1.464,3.249-0.513,7.08,2.302,9.267c1.394,1.082,3.064,1.623,4.734,1.623   c1.704,0,3.406-0.562,4.812-1.684l20.559-16.397c-3.234,10.171-4.792,18.325-4.792,18.325H73.318z"/>
</g>
<g id="Layer_2_1_">
</g>
</svg>