<?xml version="1.0" encoding="UTF-8" standalone="no"?>
<!-- Generator: Adobe Illustrator 16.0.0, SVG Export Plug-In . SVG Version: 6.00 Build 0)  -->

<svg
   xmlns:dc="http://purl.org/dc/elements/1.1/"
   xmlns:cc="http://creativecommons.org/ns#"
   xmlns:rdf="http://www.w3.org/1999/02/22-rdf-syntax-ns#"
   xmlns:svg="http://www.w3.org/2000/svg"
   xmlns="http://www.w3.org/2000/svg"
   xmlns:sodipodi="http://sodipodi.sourceforge.net/DTD/sodipodi-0.dtd"
   xmlns:inkscape="http://www.inkscape.org/namespaces/inkscape"
   version="1.1"
   id="Layer_1"
   x="0px"
   y="0px"
   width="91.879px"
   height="100px"
   viewBox="-0.072 -0.079 91.879 100"
   enable-background="new -0.072 -0.079 91.879 100"
   xml:space="preserve"
   inkscape:version="0.48.4 r9939"
   sodipodi:docname="projects.svg"><metadata
     id="metadata4247"><rdf:RDF><cc:Work
         rdf:about=""><dc:format>image/svg+xml</dc:format><dc:type
           rdf:resource="http://purl.org/dc/dcmitype/StillImage" /><dc:title></dc:title></cc:Work></rdf:RDF></metadata><defs
     id="defs4245" /><sodipodi:namedview
     pagecolor="#ffffff"
     bordercolor="#666666"
     borderopacity="1"
     objecttolerance="10"
     gridtolerance="10"
     guidetolerance="10"
     inkscape:pageopacity="0"
     inkscape:pageshadow="2"
     inkscape:window-width="1600"
     inkscape:window-height="876"
     id="namedview4243"
     showgrid="false"
     inkscape:zoom="2.36"
     inkscape:cx="-28.636772"
     inkscape:cy="50"
     inkscape:window-x="0"
     inkscape:window-y="24"
     inkscape:window-maximized="1"
     inkscape:current-layer="Layer_1" /><path
     d="M91.688,13.709c-0.511-1.993-2.52-3.187-4.481-2.661c-1.806,0.481-2.929,2.248-2.708,4.079L61.472,31.724  c-2.323-1.991-4.87-3.676-7.575-4.999L68.774,7.373c0.328-0.013,0.657-0.054,0.983-0.16c1.93-0.631,2.978-2.734,2.34-4.699  c-0.636-1.963-2.715-3.044-4.644-2.413c-1.93,0.63-2.978,2.733-2.342,4.696c0.047,0.143,0.115,0.271,0.177,0.405L49.98,25.116  c-2.239-0.756-4.556-1.27-6.925-1.491c0,0-2.161-0.058-3.041-0.023c-0.875-0.004-2.373,0.128-2.973,0.17  c-0.601,0.042-2.358,0.167-2.99,0.293c-0.687,0.111-2.109,0.145-2.109,0.315v-0.005c0,0-2.125,0.454-3.703,1.043  c-0.973,0.341-2.736,0.978-3.62,1.458c0,0.001-0.019,0.001-0.02,0.002c-0.789,0.367-1.755,0.841-2.561,1.33l-1.638,1.017  c-9.999,6.556-15.97,17.597-15.97,29.537c0,2.998,0.606,8.29,2.252,12.401l-6.756,5.866l1.356,2.207l7.118-4.503L8.047,74  c-0.351-6.097-0.061-12.589-0.061-15.234c0-10.12,4.772-19.518,12.848-25.502c-0.088,0.465-0.174,0.956-0.257,1.463l-0.001-0.001  C3.542,55.807,8.773,75.457,8.994,76.166c0,0,0.385,0.634,0.884,1.415L1.777,88.119l2.374,1.822l8.099-9.108l-0.47-0.742  c-0.313-2.072-2.774-20.877,8.125-38.288c-0.037,1.845,0.053,3.75,0.32,5.628c-9.915,15.607-7.854,33.015-7.762,33.737  c0,0,1.312,1.733,2.646,2.89c0.057-5.374-0.973-18.257,6.33-31.694c0.531,1.44,1.225,2.809,2.114,4.059  c-7.556,9.763-7.653,26.995-7.653,28.348c0,0,1.455,1.421,2.965,2.467c0.208-4.232,0.626-19.356,7.15-28.122  c1.172,1.017,2.453,1.972,3.805,2.887c-7.669,8.66-9.891,25.228-9.996,25.92c0,0,1.264,0.939,2.597,1.609  c0.811-3.712,3.154-18.122,10.438-25.594c0.983,0.589,1.99,1.159,3.006,1.723c-6.209,9.253-12.538,23.598-12.812,24.169  c0,0,0.9,0.632,2.235,1.098c0.465-0.822,7.535-14.643,13.71-23.565c0.474,0.253,0.946,0.504,1.416,0.754  c0.996,0.526,1.996,1.059,2.989,1.597c-6.433,8.643-15.626,19.397-17.36,21.55c0.822,0.488,2.578,1.021,2.578,1.021  c0.104-0.115,11.224-11.931,17.916-20.835c1.132,0.649,2.24,1.316,3.318,2.006c-6.204,7.657-20.288,18.939-20.41,19.032  c0,0,1.247,0.496,2.758,0.741c2.214-1.413,14.366-9.997,20.587-17.754c1.084,0.806,2.111,1.649,3.062,2.538  c-6.07,7.207-22.669,15.396-22.807,15.451c0,0,1.667,0.423,3.718,0.423c1.575-0.712,14.986-5.784,21.536-13.26  c0.643,0.802,1.224,1.639,1.731,2.519c-0.005,0.005-0.011,0.01-0.016,0.016c-4.77,3.643-17.235,10.11-22.771,10.804  c0,0,2.667,0.254,6.047-0.08c3.354-0.331,13.451-3.805,18.404-7.72l0.003,0.002c0.017-0.013,0.124-0.026,0.142-0.041  c0.019-0.015,0.148-0.027,0.148-0.043v-0.004c0.472-0.395,0.929-0.798,1.381-1.209c0.214,0.536,0.505,0.976,0.816,1.321  c1.514,1.686,4.094,2.071,6.525,1.854c0.417,1.313,0.815,2.805,0.63,3.207c-0.004,0.002-0.403,0.186-1.73-0.153  c-7.961-2.046-15.969-0.268-18.404,2.679c-0.832,1.005-1.135,2.173-0.649,3.204c0.933,1.98,4.421,2.943,9.429,2.943v-3.088  c-4.007,0-6.134-0.798-6.53-1.088c0.867-1.21,7.26-3.762,15.44-1.661c0.805,0.208,3.259,0.838,4.692-0.7  c1.306-1.402,0.922-3.549,0.188-5.924c0.337-0.1,0.653-0.207,0.946-0.317c2.577-0.979,4.002-2.413,4.013-4.042  c0.01-1.483-1.082-2.669-3.243-3.521c-1.802-0.709-4.052-1.354-5.464-0.014c-1.294,1.229-0.973,3.22-0.294,5.447  c-1.619,0.017-2.889-0.348-3.354-1.022c-0.307-0.445-0.339-1.139-0.107-2.016c5.589-6.139,9.083-13.781,8.721-23.235  c-0.002-0.029-0.061-0.062-0.07-0.095c-0.487-9.109-4.46-17.656-10.454-24.043l22.682-16.35c0.605,0.169,1.254,0.199,1.904,0.024  C91.021,17.752,92.199,15.704,91.688,13.709z M74.361,82.451c0.733,0.29,1.074,0.534,1.22,0.67  c-0.317,0.393-1.339,0.987-2.764,1.406c-0.32-1.016-0.624-2.108-0.602-2.652C72.5,81.879,73.131,81.967,74.361,82.451z   M48.398,42.336c8.206,7.155,13.971,12.661,18.532,22.276c-4.937-8.493-11.409-13.542-19.644-19.944l0.008-0.045  c-6.571-5.105-9.87-12.454-11.249-16.399C37.923,31.114,42.021,36.777,48.398,42.336z M28.099,29.051l0.201-0.05  c0.549,4.453,2.625,14.42,10.295,21.203c2.505,2.214,5.19,4.265,7.718,6.25c6.802,5.334,13.272,10.424,17.297,18.251  c-4.428-6.79-11.442-11.351-18.281-15.783c-3.983-2.583-7.744-5.021-10.926-7.835C26.934,44.481,27.744,32.24,28.099,29.051z   M62.677,80.671c-4.447-7.116-12.637-11.478-20.596-15.7c-5.256-2.787-10.222-5.421-13.949-8.717  c-6.253-5.53-4.96-17.331-3.826-23.229c-0.027,5.757,1.118,14.869,7.741,20.727c3.38,2.988,7.432,5.615,11.348,8.154  c7.797,5.055,15.836,10.285,19.327,18.717C62.706,80.637,62.692,80.654,62.677,80.671z M67.38,74.341  c-4.343-9.267-11.718-15.068-18.88-20.687c-2.488-1.949-5.071-3.969-7.495-6.114c-6.997-6.188-8.706-15.776-9.111-19.428  l0.108-0.027c1.22,3.853,4.818,13.007,12.975,19.346l0.059,0.045c10.526,8.179,17.543,13.639,22.43,26.72  C67.438,74.246,67.409,74.292,67.38,74.341z M50.734,39.655c-5.026-4.382-8.591-8.894-10.659-11.833  c2.115,1.848,6.501,5.635,12.46,10.533c8.791,7.225,12.324,11.812,16.529,22.544C64.438,52.039,58.682,46.583,50.734,39.655z   M54.793,35.607c-3.999-3.288-7.276-6.063-9.634-8.088c13.2,2.485,24.188,14.766,25.964,29.024  C67.15,47.301,63.182,42.501,54.793,35.607z"
     id="path4241"
     style="fill:#f8f825;fill-opacity:1;stroke:none" /></svg>